<svg width="14" height="14" viewBox="0 0 14 14" fill="none" xmlns="http://www.w3.org/2000/svg">
<path d="M13.125 10.5C13.125 9.98082 12.971 9.47331 12.6826 9.04163C12.3942 8.60995 11.9842 8.2735 11.5045 8.07482C11.0249 7.87614 10.4971 7.82415 9.98789 7.92544C9.47869 8.02672 9.01096 8.27673 8.64384 8.64384C8.27673 9.01096 8.02672 9.47869 7.92544 9.98789C7.82415 10.4971 7.87614 11.0249 8.07482 11.5045C8.2735 11.9842 8.60995 12.3942 9.04163 12.6826C9.47331 12.971 9.98082 13.125 10.5 13.125C11.196 13.1242 11.8632 12.8474 12.3553 12.3553C12.8474 11.8632 13.1242 11.196 13.125 10.5ZM12.25 10.5C12.2484 10.8114 12.1627 11.1166 12.002 11.3833L9.61669 8.99802C9.88343 8.83733 10.1886 8.75164 10.5 8.75C10.964 8.75052 11.4088 8.93506 11.7369 9.26314C12.0649 9.59121 12.2495 10.036 12.25 10.5ZM8.75 10.5C8.75162 10.1886 8.83731 9.88342 8.99802 9.61669L11.3833 12.002C11.1166 12.1627 10.8114 12.2484 10.5 12.25C10.036 12.2495 9.59121 12.0649 9.26314 11.7369C8.93506 11.4088 8.75052 10.964 8.75 10.5ZM3.5 7H7.875V7.875H3.5V7ZM3.5 4.375H8.75V5.25H3.5V4.375Z" fill="#E90000"/>
<path d="M6.125 12.1334L3.83495 10.9123C3.20467 10.577 2.67758 10.0764 2.31027 9.46424C1.94295 8.85206 1.74927 8.15142 1.75 7.4375V1.75H10.5V6.5625H11.375V1.75C11.3747 1.51802 11.2825 1.29561 11.1184 1.13158C10.9544 0.967539 10.732 0.875266 10.5 0.875H1.75C1.51802 0.875266 1.29562 0.967539 1.13158 1.13158C0.967542 1.29561 0.875269 1.51802 0.875003 1.75V7.4375C0.874055 8.31003 1.11074 9.16635 1.55966 9.91454C2.00857 10.6627 2.65276 11.2745 3.42309 11.6843L6.125 13.125V12.1334Z" fill="#E90000"/>
</svg>
