<svg width="14" height="14" viewBox="0 0 14 14" fill="none" xmlns="http://www.w3.org/2000/svg">
<path d="M11.8125 11.1939L10.9375 10.3189V9.1875H10.0625V10.6811L11.1939 11.8125L11.8125 11.1939Z" fill="#1480FF"/>
<path d="M10.5 13.5625C9.89429 13.5625 9.30219 13.3829 8.79857 13.0464C8.29494 12.7099 7.90241 12.2316 7.67062 11.672C7.43883 11.1124 7.37818 10.4966 7.49634 9.90254C7.61451 9.30847 7.90619 8.76278 8.33449 8.33449C8.76278 7.90619 9.30847 7.61451 9.90254 7.49634C10.4966 7.37818 11.1124 7.43883 11.672 7.67062C12.2316 7.90241 12.7099 8.29494 13.0464 8.79857C13.3829 9.30219 13.5625 9.89429 13.5625 10.5C13.5616 11.3119 13.2387 12.0904 12.6645 12.6645C12.0904 13.2387 11.3119 13.5616 10.5 13.5625ZM10.5 8.3125C10.0674 8.3125 9.64442 8.44079 9.28469 8.68116C8.92496 8.92153 8.64458 9.26317 8.47901 9.66288C8.31345 10.0626 8.27013 10.5024 8.35453 10.9268C8.43894 11.3511 8.64728 11.7409 8.9532 12.0468C9.25913 12.3527 9.64891 12.5611 10.0732 12.6455C10.4976 12.7299 10.9374 12.6866 11.3371 12.521C11.7368 12.3554 12.0785 12.075 12.3188 11.7153C12.5592 11.3556 12.6875 10.9326 12.6875 10.5C12.6869 9.92003 12.4562 9.36401 12.0461 8.95391C11.636 8.54381 11.08 8.31314 10.5 8.3125ZM7 12.25C5.60809 12.2484 4.27363 11.6948 3.2894 10.7106C2.30517 9.72637 1.75155 8.39191 1.75 7H0.875C0.87683 8.62389 1.52273 10.1807 2.67099 11.329C3.81926 12.4773 5.37611 13.1232 7 13.125V12.25ZM5.25 3.5H3.0968C3.80481 2.70748 4.73693 2.14881 5.76964 1.89804C6.80235 1.64726 7.88688 1.71623 8.87951 2.09579C9.87213 2.47535 10.726 3.14758 11.3279 4.02341C11.9298 4.89923 12.2514 5.93728 12.25 7H13.125C13.1269 5.78234 12.7653 4.59182 12.0864 3.58095C11.4076 2.57009 10.4424 1.7849 9.31453 1.32597C8.18667 0.867037 6.94747 0.755264 5.75568 1.00497C4.5639 1.25467 3.47379 1.85447 2.625 2.72755V0.875H1.75V4.375H5.25V3.5Z" fill="#1480FF"/>
</svg>
